:SAMPLES-PER-SECOND 30
:FULLY-SPECIFIED
:DEGREES
563
root  27.4665 32.3742 -63.4424 -175.253 41.8996 177.943
RightUpLeg  -36.9173 -22.1789 -3.63654
RightLeg  32.6399 -6.33778 -3.50535
RightFoot  0.674516 0.00201438 0.035301
RightToes  -30.9256 -0.150346 -0.258347
Spine  8.68832 -1.30558 -0.615987
Spine1  14.4015 -2.20323 -3.00483
HEad  -15.6244 -38.3844 36.4102
LeftShoulder1  0 -2.42657e-020 -4.95415e-022
LeftArm  -32.2165 -19.0799 -69.1462
LeftForeArm  35.3744 -19.9334 -3.65398
LeftHand  0.422424 -6.81683 -7.46112
RightShoulder  0 2.42657e-020 1.07489e-018
RightArm  -56.3415 22.1439 64.3573
RightForeArm  48.8577 14.2636 2.54338
RightHand  1.93035 22.2425 10.1696
LeftUpLeg  -16.8045 -2.3982 5.73777
LeftLeg  28.7717 -7.00358 -3.27101
LeftFoot  -5.93417 0.0237473 0.458149
LeftToes  -33.5014 2.34596e-006 -6.06653e-008
564
root  28.3326 32.4061 -63.9179 -176.121 41.7209 175.658
RightUpLeg  -36.6664 -26.9023 -4.06783
RightLeg  21.0783 -7.42496 -2.31864
RightFoot  0.334532 0.000910794 0.0654298
RightToes  -28.8123 -0.135829 -0.243627
Spine  8.15037 -1.97686 -0.943943
Spine1  13.4451 -4.10872 -2.86717
HEad  -16.8997 -38.1228 35.1114
LeftShoulder1  0 -2.42657e-020 -4.95415e-022
LeftArm  -29.6575 -22.2721 -68.3636
LeftForeArm  36.4613 -21.1277 -3.89333
LeftHand  0.459588 -7.62023 -7.26924
RightShoulder  0 2.42657e-020 1.07489e-018
RightArm  -56.9357 23.3712 60.9898
RightForeArm  41.8952 17.2169 3.11517
RightHand  1.76751 22.9274 9.07227
LeftUpLeg  -13.7849 -3.19512 4.4854
LeftLeg  24.6248 -6.58111 -2.51454
LeftFoot  -5.24908 0.0138252 0.301593
LeftToes  -33.3011 2.34596e-006 -6.06653e-008
565
root  29.3276 32.3172 -64.4036 -177.549 40.7153 173.296
RightUpLeg  -36.0164 -30.5222 -5.31129
RightLeg  15.672 -7.8751 -1.66457
RightFoot  -1.56143 -0.000363183 0.351053
RightToes  -28.4128 -0.133145 -0.240785
Spine  7.66725 -2.74006 -1.32322
Spine1  12.6478 -6.12834 -2.84022
HEad  -16.9359 -39.0124 33.2667
LeftShoulder1  0 -2.42657e-020 -4.95415e-022
LeftArm  -25.7689 -25.7357 -67.5591
LeftForeArm  38.6593 -21.2451 -3.91491
LeftHand  0.326308 -7.92932 -5.0799
RightShoulder  0 2.42657e-020 1.07489e-018
RightArm  -59.138 24.486 58.2054
RightForeArm  34.9076 19.8774 3.64492
RightHand  1.51134 22.8282 7.84784
LeftUpLeg  -10.3902 -4.97316 3.26708
LeftLeg  20.8102 -5.95171 -1.83275
LeftFoot  -4.87232 0.00908642 0.213564
LeftToes  -33.6329 2.34596e-006 -6.06653e-008
566
root  30.5433 32.1452 -64.8647 -179.181 40.2189 172.5
RightUpLeg  -33.4593 -30.5115 -6.95703
RightLeg  17.3265 -13.1289 -3.15157
RightFoot  -0.186071 -0.000380966 0.143471
RightToes  -23.1609 -0.0997716 -0.201738
Spine  7.8783 -3.00091 -1.12921
Spine1  12.8782 -6.95464 -2.18282
HEad  -16.5724 -40.0291 31.4797
LeftShoulder1  0 -2.42657e-020 -4.95415e-022
LeftArm  -23.6594 -29.5861 -68.0376
LeftForeArm  43.0885 -20.9055 -3.84063
LeftHand  0.238855 -8.24034 -3.68795
RightShoulder  0 2.42657e-020 1.07489e-018
RightArm  -63.3551 26.053 55.3347
RightForeArm  26.41 21.9971 4.07938
RightHand  1.47813 22.4622 7.80604
LeftUpLeg  -5.97961 -5.32579 3.46731
LeftLeg  18.0297 -6.19583 -1.58344
LeftFoot  -5.1576 0.0115839 0.257188
LeftToes  -34.6866 2.34596e-006 -6.06653e-008
567
root  31.99 31.9759 -65.1919 -179.724 41.2084 173.664
RightUpLeg  -31.6514 -28.6804 -6.81604
RightLeg  19.0826 -16.176 -4.38217
RightFoot  12.1756 0.436202 -3.71041
RightToes  -28.8802 -0.136286 -0.244108
Spine  8.28229 -2.54919 -0.124907
Spine1  13.2115 -6.06643 -0.630227
HEad  -17.2779 -39.6498 29.8579
LeftShoulder1  0 -2.42657e-020 -4.95415e-022
LeftArm  -22.9112 -32.44 -69.8804
LeftForeArm  45.9809 -21.2384 -3.90395
LeftHand  0.244955 -8.39898 -3.70812
RightShoulder  0 2.42657e-020 1.07489e-018
RightArm  -68.4093 27.8432 52.9649
RightForeArm  17.7979 24.0176 4.50163
RightHand  1.80177 21.7059 9.75064
LeftUpLeg  -1.4574 -2.17394 6.0688
LeftLeg  16.0032 -8.58002 -1.8683
LeftFoot  -5.37175 0.019973 0.425746
LeftToes  -37.9111 2.34596e-006 -6.06653e-008
